HIERARCHY
ROOT pelvis
{
	OFFSET 0.00 0.00 0.00
	CHANNELS 6 Xposition Yposition Zposition Xrotation Yrotation Zrotation
	JOINT lfemur
	{
		OFFSET 0.00000 3.26371 0.00000
		CHANNELS 3 Xrotation Yrotation Zrotation
		JOINT ltibia
		{
			OFFSET 0.00000 0.00000 -17.39272
			CHANNELS 3 Xrotation Yrotation Zrotation
			JOINT lfoot
			{
				OFFSET 0.00000 0.00000 -17.72520
				CHANNELS 3 Xrotation Yrotation Zrotation
				JOINT ltoes
				{
					OFFSET 4.21806 0.00000 0.00000
					CHANNELS 3 Xrotation Yrotation Zrotation
				}
			}
		}
	}
	JOINT rfemur
	{
		OFFSET 0.00000 -3.26371 0.00000
		CHANNELS 3 Xrotation Yrotation Zrotation
		JOINT rtibia
		{
			OFFSET 0.00000 0.00000 -17.39272
			CHANNELS 3 Xrotation Yrotation Zrotation
			JOINT rfoot
			{
				OFFSET 0.00000 0.00000 -17.72520
				CHANNELS 3 Xrotation Yrotation Zrotation
				JOINT rtoes
				{
					OFFSET 4.21806 0.00000 0.00000
					CHANNELS 3 Xrotation Yrotation Zrotation
				}
			}
		}
	}
	JOINT thorax
	{
		OFFSET -1.96850 0.00000 6.16593
		CHANNELS 6 Xposition Yposition Zposition Xrotation Yrotation Zrotation
		JOINT head
		{
			OFFSET 0.00000 0.00000 18.21355
			CHANNELS 6 Xposition Yposition Zposition Xrotation Yrotation Zrotation
		}
		JOINT lclavicle
		{
			OFFSET 0.00000 0.00000 15.13875
			CHANNELS 3 Xrotation Yrotation Zrotation
			JOINT lhumerus
			{
				OFFSET 0.00000 7.18963 -1.52650
				CHANNELS 3 Xrotation Yrotation Zrotation
				JOINT lradius
				{
					OFFSET 0.00000 0.00000 -10.12096
					CHANNELS 3 Xrotation Yrotation Zrotation
					JOINT lhand
					{
						OFFSET 0.00000 0.00000 -10.45726
						CHANNELS 3 Xrotation Yrotation Zrotation
					}
				}
			}
		}
		JOINT rclavicle
		{
			OFFSET 0.00000 0.00000 15.13875
			CHANNELS 3 Xrotation Yrotation Zrotation
			JOINT rhumerus
			{
				OFFSET 0.00000 -7.18963 -1.52650
				CHANNELS 3 Xrotation Yrotation Zrotation
				JOINT rradius
				{
					OFFSET 0.00000 0.00000 -10.12096
					CHANNELS 3 Xrotation Yrotation Zrotation
					JOINT rhand
					{
						OFFSET 0.00000 0.00000 -10.45726
						CHANNELS 3 Xrotation Yrotation Zrotation
					}
				}
			}
		}
	}
}
MOTION
Frames: 21
Frame Time: 0.008333
 -83.5523 -6.2873 36.0742 1.1403 -3.7213 -19.4882 7.7612 -16.4652 9.3440 -0.0000 17.0683 0.0000 0.0000 20.7029 -7.4538 0.0000 -24.4719 -0.0000 -7.8584 15.7577 0.1376 -0.0000 10.9884 -0.0000 0.0000 3.5760 -13.6624 0.0000 -32.6063 -0.0000 -86.4305 -5.0416 41.7236 -2.1418 6.4764 5.3787 -84.7234 -4.4560 60.4876 4.1095 9.6920 -27.9310 -17.8770 0.0000 -7.1160 32.1735 1.9874 1.1581 0.0000 -23.2682 -38.0497 -4.0562 -2.6644 0.0000 16.9566 -0.0000 2.8681 -31.8605 -20.6264 24.2078 -0.0000 -36.7688 27.3299 17.5403 -4.3678 0.0000
 -83.5404 -6.2836 36.0721 1.1804 -3.7896 -19.4620 7.7370 -16.4628 9.5800 -0.0000 17.1795 0.0000 0.0000 20.6384 -7.6952 0.0000 -24.0769 -0.0000 -7.9316 15.8404 0.1004 -0.0000 10.9658 0.0000 0.0000 3.5740 -13.6674 0.0000 -32.6375 -0.0000 -86.4108 -5.0435 41.7212 -2.2104 6.4016 5.4071 -84.7616 -4.3972 60.5119 4.3659 9.9121 -27.8110 -17.9138 0.0000 -6.9254 32.1613 2.2041 1.1440 0.0000 -22.8315 -38.1891 -3.9792 -3.0111 0.0000 16.9119 -0.0000 2.7149 -31.7318 -20.1634 24.0610 -0.0000 -36.3019 27.1672 17.9373 -4.8286 0.0000
 -83.5299 -6.2795 36.0698 1.2000 -3.8278 -19.4109 7.6965 -16.4473 9.5929 -0.0000 17.2113 0.0000 0.0000 20.6406 -7.7395 0.0000 -24.1179 -0.0000 -7.9644 15.8842 -0.0084 -0.0000 10.9892 0.0000 0.0000 3.4644 -13.5444 0.0000 -32.4928 -0.0000 -86.4114 -5.0392 41.7169 -2.2486 6.3822 5.3672 -84.7755 -4.3751 60.5088 4.3343 9.8444 -27.8602 -17.8921 0.0000 -6.8038 32.0885 2.4484 1.1912 0.0000 -22.5197 -38.3524 -3.9855 -3.0696 -0.0000 16.8786 -0.0000 2.5532 -31.6592 -19.7164 24.1022 -0.0000 -35.8368 27.5464 17.5713 -5.0936 0.0000
 -83.5235 -6.2777 36.0661 1.2154 -3.8644 -19.3575 7.6718 -16.4332 9.6181 -0.0000 17.2377 0.0000 0.0000 20.6305 -7.7928 0.0000 -24.0797 -0.0000 -7.9983 15.9285 -0.1237 -0.0000 11.0070 0.0000 0.0000 3.5105 -13.4993 0.0000 -32.6614 -0.0000 -86.4069 -5.0375 41.7133 -2.2907 6.3404 5.3339 -84.7973 -4.3544 60.5122 4.3113 9.8947 -27.8988 -17.8960 0.0000 -6.6771 32.0173 2.6988 1.3733 0.0000 -22.2523 -38.6433 -4.1009 -3.1149 0.0000 16.9057 -0.0000 2.4036 -31.6103 -19.2809 23.9328 -0.0000 -35.3342 27.7728 17.6903 -5.2498 0.0000
 -83.5204 -6.2702 36.0645 1.2500 -3.9284 -19.2818 7.6061 -16.4203 9.6465 -0.0000 17.2780 0.0000 0.0000 20.6545 -7.9274 0.0000 -24.0214 -0.0000 -8.0515 15.9847 -0.1880 -0.0000 11.0300 0.0000 0.0000 3.4894 -13.4932 0.0000 -32.6934 -0.0000 -86.4037 -5.0351 41.7048 -2.3503 6.3097 5.2726 -84.8146 -4.3384 60.5111 4.3004 9.8799 -27.8405 -17.8387 0.0000 -6.6102 31.8959 3.0510 1.5007 0.0000 -22.1056 -38.8330 -4.1404 -3.1152 0.0000 16.8319 -0.0000 2.3230 -31.5506 -18.6789 23.9936 -0.0000 -34.8357 28.2233 17.1069 -5.6885 0.0000
 -83.5169 -6.2686 36.0619 1.2546 -3.9406 -19.2479 7.5908 -16.4149 9.6080 -0.0000 17.2811 0.0000 0.0000 20.6843 -7.9007 0.0000 -24.0879 -0.0000 -8.0539 15.9880 -0.2007 -0.0000 11.0752 0.0000 0.0000 3.4917 -13.5143 0.0000 -32.7218 -0.0000 -86.4140 -5.0283 41.7061 -2.3698 6.3122 5.2473 -84.8289 -4.3202 60.5081 4.2418 9.8172 -27.8646 -17.8478 0.0000 -6.5097 31.8451 3.2500 1.6604 0.0000 -21.8779 -38.9928 -4.1781 -3.1976 -0.0000 16.9072 -0.0000 2.1686 -31.5706 -18.3663 23.6918 0.0000 -34.2101 28.1236 17.6434 -5.5800 0.0000
 -83.5034 -6.2658 36.0583 1.2828 -4.0008 -19.0948 7.5156 -16.3965 9.5641 -0.0000 17.3088 0.0000 0.0000 20.6643 -7.9498 0.0000 -24.0447 -0.0000 -8.0920 16.0701 -0.5459 -0.0000 11.0956 0.0000 0.0000 3.5065 -13.2706 0.0000 -32.8735 -0.0000 -86.3923 -5.0365 41.6955 -2.4384 6.2661 5.1767 -84.8226 -4.3168 60.4974 4.3260 9.7994 -27.8418 -17.7719 0.0000 -6.5211 31.6904 3.6357 1.9911 0.0000 -21.7023 -39.3986 -4.1851 -3.2595 0.0000 16.8697 -0.0000 2.0261 -31.4252 -17.7595 23.2828 0.0000 -33.6377 28.4861 17.7897 -5.5811 0.0000
 -83.5071 -6.2596 36.0568 1.2862 -4.0154 -19.0809 7.4978 -16.4034 9.5213 -0.0000 17.3120 0.0000 0.0000 20.6954 -7.8906 0.0000 -24.0467 -0.0000 -8.0917 16.0405 -0.3789 -0.0000 11.1803 0.0000 0.0000 3.4556 -13.4525 0.0000 -32.7877 -0.0000 -86.4144 -5.0238 41.7003 -2.4558 6.2937 5.1614 -84.8596 -4.2845 60.4990 4.2757 9.7443 -27.8959 -17.7681 0.0000 -6.4093 31.6337 3.7944 2.0610 0.0000 -21.5380 -39.4970 -4.3911 -3.1342 -0.0000 16.8986 -0.0000 1.8712 -31.4603 -17.4247 23.1505 -0.0000 -32.9047 28.6175 17.8262 -5.8740 0.0000
 -83.5041 -6.2603 36.0525 1.2928 -4.0438 -19.0374 7.4840 -16.4004 9.5112 -0.0000 17.3493 0.0000 0.0000 20.6973 -7.8945 0.0000 -24.1142 -0.0000 -8.0931 16.0474 -0.3907 -0.0000 11.2579 0.0000 0.0000 3.3152 -13.4661 0.0000 -32.5704 -0.0000 -86.4099 -5.0224 41.6990 -2.4826 6.2617 5.1060 -84.8834 -4.2704 60.5002 4.2644 9.7436 -27.8402 -17.7502 0.0000 -6.2666 31.5683 4.0232 2.1458 0.0000 -21.3590 -39.6104 -4.3579 -3.4076 -0.0000 16.9438 -0.0000 1.6912 -31.4306 -17.0131 22.9036 -0.0000 -32.0967 29.0019 17.9174 -6.1907 -0.0000
 -83.5005 -6.2549 36.0495 1.3067 -4.0935 -18.9286 7.4358 -16.4098 9.4703 -0.0000 17.4151 0.0000 0.0000 20.6858 -7.9367 0.0000 -24.2900 -0.0000 -8.1015 16.0889 -0.4728 -0.0000 11.3164 0.0000 0.0000 3.2977 -13.4755 0.0000 -32.5623 -0.0000 -86.3995 -5.0281 41.6931 -2.5309 6.1995 5.0298 -84.9084 -4.2559 60.5014 4.3183 9.8538 -27.7855 -17.6828 0.0000 -6.1614 31.4751 4.2860 2.1318 0.0000 -21.2410 -39.6367 -4.4178 -3.2673 -0.0000 16.9038 -0.0000 1.5896 -31.2927 -16.4339 22.5271 -0.0000 -31.3347 29.4709 18.2625 -5.8171 0.0000
 -83.4996 -6.2526 36.0465 1.3119 -4.1006 -18.8956 7.4228 -16.4111 9.4450 -0.0000 17.4164 0.0000 0.0000 20.7053 -7.8970 0.0000 -24.6657 -0.0000 -8.0924 16.0733 -0.3877 -0.0000 11.3750 0.0000 0.0000 3.3051 -13.6038 0.0000 -32.7291 -0.0000 -86.4125 -5.0196 41.6909 -2.5482 6.2269 5.0221 -84.9067 -4.2346 60.4922 4.2666 9.7430 -27.9704 -17.6731 0.0000 -6.0598 31.4210 4.4389 2.2515 0.0000 -21.1846 -39.7849 -4.6503 -3.1430 -0.0000 16.9236 -0.0000 1.4348 -31.3492 -16.0409 22.3255 -0.0000 -30.5908 29.5842 18.3457 -5.6534 0.0000
 -83.4975 -6.2500 36.0441 1.3323 -4.1492 -18.7956 7.3703 -16.4063 9.4023 -0.0000 17.4463 0.0000 0.0000 20.7104 -7.8795 0.0000 -25.0086 -0.0000 -8.1052 16.1319 -0.4627 -0.0000 11.3895 0.0000 0.0000 3.2830 -13.6489 0.0000 -32.7351 -0.0000 -86.3983 -5.0257 41.6847 -2.6055 6.1441 4.9109 -84.8955 -4.2555 60.4632 4.0529 9.6370 -28.0407 -17.6044 0.0000 -6.0113 31.3196 4.8107 2.3407 0.0000 -21.1381 -39.8592 -4.6097 -3.3737 0.0000 16.9015 -0.0000 1.3900 -31.1976 -15.4387 21.6721 -0.0000 -29.7011 30.1936 18.5527 -5.9854 0.0000
 -83.4955 -6.2482 36.0413 1.3362 -4.1575 -18.7746 7.3538 -16.4085 9.3413 -0.0000 17.4607 0.0000 0.0000 20.7234 -7.7465 0.0000 -25.4728 -0.0000 -8.1013 16.1200 -0.3756 -0.0000 11.4527 0.0000 -0.0000 3.2729 -13.7775 0.0000 -32.7663 -0.0000 -86.4159 -5.0182 41.6824 -2.6178 6.1668 4.9006 -84.9164 -4.2430 60.4615 3.9901 9.6120 -28.0603 -17.5947 0.0000 -5.9524 31.2897 4.9261 2.4074 0.0000 -21.0381 -39.9290 -4.4294 -3.5627 0.0000 16.9017 -0.0000 1.2594 -31.2551 -15.0486 21.4882 -0.0000 -28.8684 30.2869 18.4920 -5.8199 0.0000
 -83.4920 -6.2484 36.0390 1.3424 -4.2136 -18.6942 7.3128 -16.3908 9.2624 -0.0000 17.4912 0.0000 0.0000 20.7393 -7.6926 0.0000 -25.8562 -0.0000 -8.1088 16.1624 -0.5126 -0.0000 11.5028 0.0000 0.0000 3.2156 -13.6926 0.0000 -32.7567 -0.0000 -86.3991 -5.0273 41.6782 -2.6740 6.0759 4.8260 -84.9545 -4.1957 60.4863 4.2594 9.8849 -27.9039 -17.5506 0.0000 -5.9388 31.2051 5.3180 2.5845 0.0000 -21.0247 -40.0340 -4.7218 -3.6326 -0.0000 16.8600 -0.0000 1.2521 -31.0627 -14.3705 20.6258 -0.0000 -27.9452 31.0507 18.9819 -5.8432 -0.0000
 -83.4918 -6.2466 36.0362 1.3448 -4.2218 -18.6794 7.2874 -16.3948 9.1456 -0.0000 17.5041 0.0000 0.0000 20.7195 -7.5121 0.0000 -26.1738 -0.0000 -8.1053 16.1468 -0.4349 -0.0000 11.5627 -0.0000 0.0000 3.2145 -13.8122 0.0000 -32.7674 -0.0000 -86.4162 -5.0195 41.6767 -2.6790 6.1000 4.8287 -84.9837 -4.1837 60.4900 4.3012 9.8783 -27.8237 -17.5399 0.0000 -5.8702 31.1589 5.4186 2.6227 0.0000 -20.9778 -40.0759 -4.8328 -3.4322 -0.0000 16.8575 -0.0000 1.1235 -31.1424 -13.9848 20.4266 -0.0000 -27.0638 31.0882 18.7935 -5.6791 0.0000
 -83.4936 -6.2488 36.0360 1.3464 -4.2654 -18.6333 7.2407 -16.3422 8.9719 -0.0000 17.4474 0.0000 0.0000 20.7802 -7.3615 0.0000 -26.5220 -0.0000 -8.1109 16.1536 -0.5172 -0.0000 11.6473 0.0000 0.0000 3.1548 -13.8163 0.0000 -32.6831 -0.0000 -86.4081 -5.0244 41.6732 -2.7138 6.0324 4.7826 -84.9801 -4.1705 60.4751 4.2775 9.8580 -27.8777 -17.4990 0.0000 -5.8147 31.1172 5.6741 2.4959 0.0000 -20.9556 -40.0081 -4.7108 -3.5156 0.0000 16.8319 -0.0000 1.1294 -31.0554 -13.3490 19.6337 -0.0000 -26.1346 31.6976 18.9102 -5.9669 -0.0000
 -83.4943 -6.2484 36.0336 1.3477 -4.2730 -18.6217 7.2151 -16.3451 8.8579 -0.0000 17.4610 0.0000 0.0000 20.7908 -7.1658 0.0000 -26.9811 -0.0000 -8.1024 16.1432 -0.4887 -0.0000 11.6799 0.0000 0.0000 3.1517 -13.8234 0.0000 -32.7558 -0.0000 -86.4251 -5.0195 41.6707 -2.7223 6.0541 4.7783 -85.0031 -4.1582 60.4779 4.2351 9.8747 -27.9136 -17.4953 0.0000 -5.7614 31.0929 5.7593 2.5465 0.0000 -20.9430 -40.0882 -4.8779 -3.3412 0.0000 16.8214 -0.0000 1.0008 -31.1343 -12.9547 19.4133 0.0000 -25.2553 31.7486 18.7068 -5.8782 0.0000
 -83.4950 -6.2487 36.0332 1.3450 -4.3132 -18.5397 7.1489 -16.2930 8.6176 -0.0000 17.3797 0.0000 0.0000 20.8319 -6.8883 0.0000 -27.4606 -0.0000 -8.0979 16.1713 -0.6420 -0.0000 11.7258 0.0000 0.0000 3.1465 -13.7613 0.0000 -32.7942 -0.0000 -86.4158 -5.0282 41.6688 -2.7579 5.9964 4.7092 -85.0195 -4.1505 60.4769 4.2389 9.9529 -27.9182 -17.4920 0.0000 -5.6955 31.1156 5.9892 2.4322 0.0000 -20.9787 -40.0723 -4.9445 -3.4426 -0.0000 16.7718 -0.0000 1.0011 -30.9671 -12.3177 18.2994 -0.0000 -24.2968 32.6269 18.9382 -6.1135 0.0000
 -83.4983 -6.2512 36.0303 1.3495 -4.3289 -18.5310 7.1229 -16.2872 8.4962 -0.0000 17.3738 0.0000 0.0000 20.8194 -6.6116 0.0000 -27.8986 -0.0000 -8.0904 16.1655 -0.5948 -0.0000 11.7522 0.0000 0.0000 3.1121 -13.8160 0.0000 -32.7904 -0.0000 -86.4315 -5.0242 41.6686 -2.7682 6.0069 4.6767 -85.0376 -4.1409 60.4773 4.1748 9.9739 -27.9160 -17.4794 0.0000 -5.6401 31.0960 6.0687 2.3900 0.0000 -20.9362 -40.1162 -4.8538 -3.5911 -0.0000 16.7613 -0.0000 0.8778 -31.0262 -11.9558 17.9089 -0.0000 -23.3383 32.8713 18.8381 -6.2759 -0.0000
 -83.5020 -6.2504 36.0322 1.3511 -4.3584 -18.4632 7.0508 -16.2419 8.2155 -0.0000 17.2866 0.0000 0.0000 20.9293 -6.2756 0.0000 -28.4622 -0.0000 -8.0738 16.2026 -0.5997 -0.0000 11.7474 0.0000 0.0000 3.1281 -13.9105 0.0000 -32.8512 -0.0000 -86.4284 -5.0309 41.6675 -2.7974 5.9736 4.6497 -85.0574 -4.1361 60.4742 4.1948 10.0051 -27.8799 -17.5009 0.0000 -5.5251 31.1477 6.1409 2.2297 0.0000 -20.9538 -40.1667 -4.8441 -3.5938 -0.0000 16.7084 -0.0000 0.8146 -30.8989 -11.3750 16.7828 -0.0000 -22.4361 33.7867 19.0992 -6.3359 0.0000
 -83.5036 -6.2548 36.0295 1.3512 -4.3711 -18.4461 7.0291 -16.2348 8.0953 -0.0000 17.2806 0.0000 0.0000 20.8728 -6.0089 0.0000 -28.8482 -0.0000 -8.0670 16.2130 -0.6069 -0.0000 11.7754 0.0000 0.0000 3.0663 -13.8738 0.0000 -32.7366 -0.0000 -86.4430 -5.0294 41.6677 -2.8067 5.9804 4.6223 -85.0706 -4.1252 60.4738 4.1626 9.9953 -27.9229 -17.4888 0.0000 -5.4768 31.1321 6.1949 2.2291 0.0000 -20.9537 -40.2541 -4.8849 -3.6779 -0.0000 16.6918 -0.0000 0.7197 -30.9782 -10.9814 16.4098 -0.0000 -21.5128 33.9327 18.8543 -6.3324 0.0000
